<?xml version="1.0" encoding="UTF-8" standalone="no" ?>
<!DOCTYPE svg PUBLIC "-//W3C//DTD SVG 1.1//EN" "http://www.w3.org/Graphics/SVG/1.1/DTD/svg11.dtd">
<svg xmlns="http://www.w3.org/2000/svg" xmlns:xlink="http://www.w3.org/1999/xlink" version="1.1" width="128" height="128" viewBox="0 0 128 128" xml:space="preserve">
<desc>Created with Fabric.js 5.2.4</desc>
<defs>
</defs>
<g transform="matrix(1 0 0 1 64 64)" id="e9f14d98-a73a-4082-901d-f33f585e2989"  >
<rect style="stroke: none; stroke-width: 1; stroke-dasharray: none; stroke-linecap: butt; stroke-dashoffset: 0; stroke-linejoin: miter; stroke-miterlimit: 4; fill: rgb(255,255,255); fill-rule: nonzero; opacity: 1; visibility: hidden;" vector-effect="non-scaling-stroke"  x="-64" y="-64" rx="0" ry="0" width="128" height="128" />
</g>
<g transform="matrix(0 0 0 0 0 0)" id="9bde9f84-eb9f-4aed-a7f3-bbb9fbec05af"  >
</g>
<g transform="matrix(1.33 0 0 1.33 69.68 63.51)"  >
<path style="stroke: none; stroke-width: 1; stroke-dasharray: none; stroke-linecap: butt; stroke-dashoffset: 0; stroke-linejoin: miter; stroke-miterlimit: 4; fill: rgb(225,224,216); fill-rule: nonzero; opacity: 1;" vector-effect="non-scaling-stroke"  transform=" translate(-52.31, -47.69)" d="M 67.691406 36.921875 L 67.691406 44.140625 C 67.691406 49.679688 58.949219 52.390625 50.492188 55.007812 C 45.25 56.632812 40.195312 58.207031 36.921875 60.558594 L 36.921875 25.230469 L 33.230469 25.230469 L 33.230469 66.84375 C 33.230469 66.847656 33.230469 66.851562 33.230469 66.851562 L 33.230469 70.152344 L 36.921875 70.152344 L 36.921875 66.847656 C 36.929688 63.074219 44.378906 60.765625 51.585938 58.535156 C 60.863281 55.660156 71.382812 52.402344 71.382812 44.140625 L 71.382812 36.921875 Z M 67.691406 36.921875" stroke-linecap="round" />
</g>
<g transform="matrix(1.33 0 0 1.33 69.68 63.51)"  >
<path style="stroke: none; stroke-width: 1; stroke-dasharray: none; stroke-linecap: butt; stroke-dashoffset: 0; stroke-linejoin: miter; stroke-miterlimit: 4; fill: rgb(71,43,41); fill-rule: nonzero; opacity: 1;" vector-effect="non-scaling-stroke"  transform=" translate(-52.31, -47.69)" d="M 37.539062 70.769531 L 32.617188 70.769531 L 32.617188 24.617188 L 37.539062 24.617188 L 37.539062 59.410156 C 40.910156 57.332031 45.679688 55.855469 50.308594 54.417969 C 58.554688 51.867188 67.078125 49.226562 67.078125 44.140625 L 67.078125 36.308594 L 72 36.308594 L 72 44.140625 C 72 52.859375 61.25 56.1875 51.765625 59.121094 C 45.101562 61.1875 37.542969 63.527344 37.539062 66.847656 Z M 33.847656 69.539062 L 36.308594 69.539062 L 36.308594 66.847656 C 36.316406 62.617188 43.644531 60.347656 51.402344 57.945312 C 60.480469 55.136719 70.769531 51.949219 70.769531 44.140625 L 70.769531 37.539062 L 68.308594 37.539062 L 68.308594 44.140625 C 68.308594 50.136719 59.34375 52.910156 50.675781 55.597656 C 45.671875 57.144531 40.5 58.746094 37.28125 61.058594 L 36.308594 61.757812 L 36.308594 25.847656 L 33.847656 25.847656 Z M 33.847656 69.539062" stroke-linecap="round" />
</g>
<g transform="matrix(1.33 0 0 1.33 46.75 31.99)"  >
<path style="stroke: none; stroke-width: 1; stroke-dasharray: none; stroke-linecap: butt; stroke-dashoffset: 0; stroke-linejoin: miter; stroke-miterlimit: 4; fill: rgb(119,203,210); fill-rule: nonzero; opacity: 1;" vector-effect="non-scaling-stroke"  transform=" translate(-35.08, -24)" d="M 40.984375 24 C 40.984375 24.386719 40.945312 24.773438 40.871094 25.152344 C 40.796875 25.53125 40.683594 25.902344 40.535156 26.261719 C 40.386719 26.621094 40.203125 26.960938 39.988281 27.28125 C 39.773438 27.605469 39.527344 27.902344 39.253906 28.175781 C 38.980469 28.453125 38.679688 28.695312 38.359375 28.910156 C 38.035156 29.128906 37.695312 29.308594 37.335938 29.457031 C 36.980469 29.605469 36.609375 29.71875 36.230469 29.792969 C 35.847656 29.871094 35.464844 29.90625 35.078125 29.90625 C 34.6875 29.90625 34.304688 29.871094 33.925781 29.792969 C 33.542969 29.71875 33.175781 29.605469 32.816406 29.457031 C 32.457031 29.308594 32.117188 29.128906 31.792969 28.910156 C 31.472656 28.695312 31.175781 28.453125 30.898438 28.175781 C 30.625 27.902344 30.378906 27.605469 30.164062 27.28125 C 29.949219 26.960938 29.765625 26.621094 29.617188 26.261719 C 29.46875 25.902344 29.359375 25.53125 29.28125 25.152344 C 29.207031 24.773438 29.167969 24.386719 29.167969 24 C 29.167969 23.613281 29.207031 23.226562 29.28125 22.847656 C 29.359375 22.46875 29.46875 22.097656 29.617188 21.738281 C 29.765625 21.378906 29.949219 21.039062 30.164062 20.71875 C 30.378906 20.394531 30.625 20.097656 30.898438 19.824219 C 31.175781 19.546875 31.472656 19.304688 31.792969 19.089844 C 32.117188 18.871094 32.457031 18.691406 32.816406 18.542969 C 33.175781 18.394531 33.542969 18.28125 33.925781 18.207031 C 34.304688 18.128906 34.6875 18.09375 35.078125 18.09375 C 35.464844 18.09375 35.847656 18.128906 36.230469 18.207031 C 36.609375 18.28125 36.980469 18.394531 37.335938 18.542969 C 37.695312 18.691406 38.035156 18.871094 38.359375 19.089844 C 38.679688 19.304688 38.980469 19.546875 39.253906 19.824219 C 39.527344 20.097656 39.773438 20.394531 39.988281 20.71875 C 40.203125 21.039062 40.386719 21.378906 40.535156 21.738281 C 40.683594 22.097656 40.796875 22.46875 40.871094 22.847656 C 40.945312 23.226562 40.984375 23.613281 40.984375 24 Z M 40.984375 24" stroke-linecap="round" />
</g>
<g transform="matrix(1.33 0 0 1.33 46.74 31.97)"  >
<path style="stroke: none; stroke-width: 1; stroke-dasharray: none; stroke-linecap: butt; stroke-dashoffset: 0; stroke-linejoin: miter; stroke-miterlimit: 4; fill: rgb(71,43,41); fill-rule: nonzero; opacity: 1;" vector-effect="non-scaling-stroke"  transform=" translate(-35.08, -24)" d="M 35.078125 18.953125 C 37.859375 18.953125 40.125 21.21875 40.125 24 C 40.125 26.78125 37.859375 29.046875 35.078125 29.046875 C 32.292969 29.046875 30.03125 26.78125 30.03125 24 C 30.03125 21.21875 32.292969 18.953125 35.078125 18.953125 M 35.078125 17.230469 C 31.335938 17.230469 28.308594 20.261719 28.308594 24 C 28.308594 27.738281 31.335938 30.769531 35.078125 30.769531 C 38.816406 30.769531 41.847656 27.738281 41.847656 24 C 41.847656 20.261719 38.816406 17.230469 35.078125 17.230469 Z M 35.078125 17.230469" stroke-linecap="round" />
</g>
<g transform="matrix(1.33 0 0 1.33 46.76 31.99)"  >
<path style="stroke: none; stroke-width: 1; stroke-dasharray: none; stroke-linecap: butt; stroke-dashoffset: 0; stroke-linejoin: miter; stroke-miterlimit: 4; fill: rgb(71,43,41); fill-rule: nonzero; opacity: 1;" vector-effect="non-scaling-stroke"  transform=" translate(-35.08, -24)" d="M 35.078125 26.769531 C 33.550781 26.769531 32.308594 25.527344 32.308594 24 C 32.308594 22.472656 33.550781 21.230469 35.078125 21.230469 C 36.605469 21.230469 37.847656 22.472656 37.847656 24 C 37.847656 25.527344 36.605469 26.769531 35.078125 26.769531 Z M 35.078125 21.847656 C 33.890625 21.847656 32.921875 22.8125 32.921875 24 C 32.921875 25.1875 33.890625 26.152344 35.078125 26.152344 C 36.265625 26.152344 37.230469 25.1875 37.230469 24 C 37.230469 22.8125 36.265625 21.847656 35.078125 21.847656 Z M 35.078125 21.847656" stroke-linecap="round" />
</g>
<g transform="matrix(1.33 0 0 1.33 46.75 99.27)"  >
<path style="stroke: none; stroke-width: 1; stroke-dasharray: none; stroke-linecap: butt; stroke-dashoffset: 0; stroke-linejoin: miter; stroke-miterlimit: 4; fill: rgb(0,165,165); fill-rule: nonzero; opacity: 1;" vector-effect="non-scaling-stroke"  transform=" translate(-35.08, -74.46)" d="M 40.984375 74.460938 C 40.984375 74.847656 40.945312 75.234375 40.871094 75.613281 C 40.796875 75.996094 40.683594 76.363281 40.535156 76.722656 C 40.386719 77.082031 40.203125 77.421875 39.988281 77.742188 C 39.773438 78.066406 39.527344 78.363281 39.253906 78.640625 C 38.980469 78.914062 38.679688 79.15625 38.359375 79.375 C 38.035156 79.589844 37.695312 79.769531 37.335938 79.917969 C 36.980469 80.066406 36.609375 80.179688 36.230469 80.253906 C 35.847656 80.332031 35.464844 80.371094 35.078125 80.371094 C 34.6875 80.371094 34.304688 80.332031 33.925781 80.253906 C 33.542969 80.179688 33.175781 80.066406 32.816406 79.917969 C 32.457031 79.769531 32.117188 79.589844 31.792969 79.375 C 31.472656 79.15625 31.175781 78.914062 30.898438 78.640625 C 30.625 78.363281 30.378906 78.066406 30.164062 77.742188 C 29.949219 77.421875 29.765625 77.082031 29.617188 76.722656 C 29.46875 76.363281 29.359375 75.996094 29.28125 75.613281 C 29.207031 75.234375 29.167969 74.847656 29.167969 74.460938 C 29.167969 74.074219 29.207031 73.6875 29.28125 73.308594 C 29.359375 72.929688 29.46875 72.558594 29.617188 72.199219 C 29.765625 71.84375 29.949219 71.5 30.164062 71.179688 C 30.378906 70.855469 30.625 70.558594 30.898438 70.285156 C 31.175781 70.011719 31.472656 69.765625 31.792969 69.550781 C 32.117188 69.332031 32.457031 69.152344 32.816406 69.003906 C 33.175781 68.855469 33.542969 68.742188 33.925781 68.667969 C 34.304688 68.589844 34.6875 68.554688 35.078125 68.554688 C 35.464844 68.554688 35.847656 68.589844 36.230469 68.667969 C 36.609375 68.742188 36.980469 68.855469 37.335938 69.003906 C 37.695312 69.152344 38.035156 69.332031 38.359375 69.550781 C 38.679688 69.765625 38.980469 70.011719 39.253906 70.285156 C 39.527344 70.558594 39.773438 70.855469 39.988281 71.179688 C 40.203125 71.5 40.386719 71.84375 40.535156 72.199219 C 40.683594 72.558594 40.796875 72.929688 40.871094 73.308594 C 40.945312 73.6875 40.984375 74.074219 40.984375 74.460938 Z M 40.984375 74.460938" stroke-linecap="round" />
</g>
<g transform="matrix(1.33 0 0 1.33 46.74 99.26)"  >
<path style="stroke: none; stroke-width: 1; stroke-dasharray: none; stroke-linecap: butt; stroke-dashoffset: 0; stroke-linejoin: miter; stroke-miterlimit: 4; fill: rgb(71,43,41); fill-rule: nonzero; opacity: 1;" vector-effect="non-scaling-stroke"  transform=" translate(-35.08, -74.46)" d="M 35.078125 69.414062 C 37.859375 69.414062 40.125 71.679688 40.125 74.460938 C 40.125 77.246094 37.859375 79.507812 35.078125 79.507812 C 32.292969 79.507812 30.03125 77.246094 30.03125 74.460938 C 30.03125 71.679688 32.292969 69.414062 35.078125 69.414062 M 35.078125 67.691406 C 31.335938 67.691406 28.308594 70.722656 28.308594 74.460938 C 28.308594 78.199219 31.335938 81.230469 35.078125 81.230469 C 38.816406 81.230469 41.847656 78.199219 41.847656 74.460938 C 41.847656 70.722656 38.816406 67.691406 35.078125 67.691406 Z M 35.078125 67.691406" stroke-linecap="round" />
</g>
<g transform="matrix(1.33 0 0 1.33 92.7 43.47)"  >
<path style="stroke: none; stroke-width: 1; stroke-dasharray: none; stroke-linecap: butt; stroke-dashoffset: 0; stroke-linejoin: miter; stroke-miterlimit: 4; fill: rgb(119,203,210); fill-rule: nonzero; opacity: 1;" vector-effect="non-scaling-stroke"  transform=" translate(-69.54, -32.62)" d="M 75.445312 32.617188 C 75.445312 33.003906 75.410156 33.386719 75.332031 33.769531 C 75.257812 34.148438 75.144531 34.519531 74.996094 34.875 C 74.847656 35.234375 74.667969 35.574219 74.449219 35.898438 C 74.234375 36.21875 73.988281 36.519531 73.714844 36.792969 C 73.441406 37.066406 73.144531 37.3125 72.820312 37.527344 C 72.5 37.742188 72.15625 37.925781 71.800781 38.074219 C 71.441406 38.222656 71.070312 38.332031 70.691406 38.410156 C 70.308594 38.484375 69.925781 38.523438 69.539062 38.523438 C 69.152344 38.523438 68.765625 38.484375 68.386719 38.410156 C 68.003906 38.332031 67.636719 38.222656 67.277344 38.074219 C 66.917969 37.925781 66.578125 37.742188 66.257812 37.527344 C 65.933594 37.3125 65.636719 37.066406 65.359375 36.792969 C 65.085938 36.519531 64.84375 36.21875 64.625 35.898438 C 64.410156 35.574219 64.230469 35.234375 64.082031 34.875 C 63.933594 34.519531 63.820312 34.148438 63.746094 33.769531 C 63.667969 33.386719 63.628906 33.003906 63.628906 32.617188 C 63.628906 32.226562 63.667969 31.84375 63.746094 31.460938 C 63.820312 31.082031 63.933594 30.714844 64.082031 30.355469 C 64.230469 29.996094 64.410156 29.65625 64.625 29.332031 C 64.84375 29.011719 65.085938 28.710938 65.359375 28.4375 C 65.636719 28.164062 65.933594 27.917969 66.257812 27.703125 C 66.578125 27.488281 66.917969 27.304688 67.277344 27.15625 C 67.636719 27.007812 68.003906 26.898438 68.386719 26.820312 C 68.765625 26.746094 69.152344 26.707031 69.539062 26.707031 C 69.925781 26.707031 70.308594 26.746094 70.691406 26.820312 C 71.070312 26.898438 71.441406 27.007812 71.800781 27.15625 C 72.15625 27.304688 72.5 27.488281 72.820312 27.703125 C 73.144531 27.917969 73.441406 28.164062 73.714844 28.4375 C 73.988281 28.710938 74.234375 29.011719 74.449219 29.332031 C 74.667969 29.65625 74.847656 29.996094 74.996094 30.355469 C 75.144531 30.714844 75.257812 31.082031 75.332031 31.460938 C 75.410156 31.84375 75.445312 32.226562 75.445312 32.617188 Z M 75.445312 32.617188" stroke-linecap="round" />
</g>
<g transform="matrix(1.33 0 0 1.33 92.69 43.46)"  >
<path style="stroke: none; stroke-width: 1; stroke-dasharray: none; stroke-linecap: butt; stroke-dashoffset: 0; stroke-linejoin: miter; stroke-miterlimit: 4; fill: rgb(71,43,41); fill-rule: nonzero; opacity: 1;" vector-effect="non-scaling-stroke"  transform=" translate(-69.54, -32.62)" d="M 69.539062 27.570312 C 72.320312 27.570312 74.585938 29.832031 74.585938 32.617188 C 74.585938 35.398438 72.320312 37.660156 69.539062 37.660156 C 66.753906 37.660156 64.492188 35.398438 64.492188 32.617188 C 64.492188 29.832031 66.753906 27.570312 69.539062 27.570312 M 69.539062 25.847656 C 65.800781 25.847656 62.769531 28.875 62.769531 32.617188 C 62.769531 36.355469 65.800781 39.382812 69.539062 39.382812 C 73.277344 39.382812 76.308594 36.355469 76.308594 32.617188 C 76.308594 28.875 73.277344 25.847656 69.539062 25.847656 Z M 69.539062 25.847656" stroke-linecap="round" />
</g>
<g transform="matrix(1.33 0 0 1.33 92.71 43.48)"  >
<path style="stroke: none; stroke-width: 1; stroke-dasharray: none; stroke-linecap: butt; stroke-dashoffset: 0; stroke-linejoin: miter; stroke-miterlimit: 4; fill: rgb(71,43,41); fill-rule: nonzero; opacity: 1;" vector-effect="non-scaling-stroke"  transform=" translate(-69.54, -32.62)" d="M 69.539062 35.382812 C 68.011719 35.382812 66.769531 34.144531 66.769531 32.617188 C 66.769531 31.089844 68.011719 29.847656 69.539062 29.847656 C 71.066406 29.847656 72.308594 31.089844 72.308594 32.617188 C 72.308594 34.144531 71.066406 35.382812 69.539062 35.382812 Z M 69.539062 30.460938 C 68.351562 30.460938 67.382812 31.425781 67.382812 32.617188 C 67.382812 33.804688 68.351562 34.769531 69.539062 34.769531 C 70.726562 34.769531 71.691406 33.804688 71.691406 32.617188 C 71.691406 31.425781 70.726562 30.460938 69.539062 30.460938 Z M 69.539062 30.460938" stroke-linecap="round" />
</g>
<g transform="matrix(1.33 0 0 1.33 46.76 99.27)"  >
<path style="stroke: none; stroke-width: 1; stroke-dasharray: none; stroke-linecap: butt; stroke-dashoffset: 0; stroke-linejoin: miter; stroke-miterlimit: 4; fill: rgb(71,43,41); fill-rule: nonzero; opacity: 1;" vector-effect="non-scaling-stroke"  transform=" translate(-35.08, -74.46)" d="M 35.078125 77.230469 C 33.550781 77.230469 32.308594 75.988281 32.308594 74.460938 C 32.308594 72.933594 33.550781 71.691406 35.078125 71.691406 C 36.605469 71.691406 37.847656 72.933594 37.847656 74.460938 C 37.847656 75.988281 36.605469 77.230469 35.078125 77.230469 Z M 35.078125 72.308594 C 33.890625 72.308594 32.921875 73.273438 32.921875 74.460938 C 32.921875 75.648438 33.890625 76.617188 35.078125 76.617188 C 36.265625 76.617188 37.230469 75.648438 37.230469 74.460938 C 37.230469 73.273438 36.265625 72.308594 35.078125 72.308594 Z M 35.078125 72.308594" stroke-linecap="round" />
</g>
<g transform="matrix(1.33 0 0 1.33 53.33 45.12)"  >
<path style="stroke: none; stroke-width: 1; stroke-dasharray: none; stroke-linecap: butt; stroke-dashoffset: 0; stroke-linejoin: miter; stroke-miterlimit: 4; fill: rgb(71,43,41); fill-rule: nonzero; opacity: 1;" vector-effect="non-scaling-stroke"  transform=" translate(-40, -33.85)" d="M 40 36.617188 C 39.832031 36.617188 39.691406 36.476562 39.691406 36.308594 L 39.691406 31.382812 C 39.691406 31.214844 39.832031 31.078125 40 31.078125 C 40.167969 31.078125 40.308594 31.214844 40.308594 31.382812 L 40.308594 36.308594 C 40.308594 36.476562 40.167969 36.617188 40 36.617188 Z M 40 36.617188" stroke-linecap="round" />
</g>
<g transform="matrix(1.33 0 0 1.33 53.33 63.15)"  >
<path style="stroke: none; stroke-width: 1; stroke-dasharray: none; stroke-linecap: butt; stroke-dashoffset: 0; stroke-linejoin: miter; stroke-miterlimit: 4; fill: rgb(71,43,41); fill-rule: nonzero; opacity: 1;" vector-effect="non-scaling-stroke"  transform=" translate(-40, -47.38)" d="M 40 55.078125 C 39.832031 55.078125 39.691406 54.9375 39.691406 54.769531 L 39.691406 40 C 39.691406 39.832031 39.832031 39.691406 40 39.691406 C 40.167969 39.691406 40.308594 39.832031 40.308594 40 L 40.308594 54.769531 C 40.308594 54.9375 40.167969 55.078125 40 55.078125 Z M 40 55.078125" stroke-linecap="round" />
</g>
<g transform="matrix(1.33 0 0 1.33 91.66 71.84)"  >
<path style="stroke: none; stroke-width: 1; stroke-dasharray: none; stroke-linecap: butt; stroke-dashoffset: 0; stroke-linejoin: miter; stroke-miterlimit: 4; fill: rgb(71,43,41); fill-rule: nonzero; opacity: 1;" vector-effect="non-scaling-stroke"  transform=" translate(-68.75, -53.89)" d="M 64.992188 57.832031 C 64.878906 57.832031 64.773438 57.769531 64.71875 57.660156 C 64.640625 57.507812 64.703125 57.324219 64.855469 57.25 C 69.089844 55.152344 71.566406 52.773438 72.214844 50.179688 C 72.253906 50.015625 72.421875 49.914062 72.585938 49.957031 C 72.753906 50 72.851562 50.164062 72.8125 50.328125 C 72.117188 53.105469 69.53125 55.621094 65.128906 57.800781 C 65.085938 57.824219 65.039062 57.832031 64.992188 57.832031 Z M 64.992188 57.832031" stroke-linecap="round" />
</g>
<g transform="matrix(1.33 0 0 1.33 68.99 83.44)"  >
<path style="stroke: none; stroke-width: 1; stroke-dasharray: none; stroke-linecap: butt; stroke-dashoffset: 0; stroke-linejoin: miter; stroke-miterlimit: 4; fill: rgb(71,43,41); fill-rule: nonzero; opacity: 1;" vector-effect="non-scaling-stroke"  transform=" translate(-51.77, -62.59)" d="M 41.742188 66.5625 C 41.664062 66.5625 41.585938 66.53125 41.527344 66.472656 C 41.40625 66.351562 41.40625 66.160156 41.527344 66.039062 C 41.628906 65.9375 44.160156 63.488281 53.976562 61.035156 C 56.84375 60.320312 59.433594 59.511719 61.683594 58.640625 C 61.839844 58.578125 62.019531 58.65625 62.082031 58.8125 C 62.144531 58.972656 62.0625 59.152344 61.90625 59.210938 C 59.632812 60.097656 57.015625 60.910156 54.125 61.632812 C 44.527344 64.03125 41.984375 66.449219 41.960938 66.476562 C 41.898438 66.535156 41.820312 66.5625 41.742188 66.5625 Z M 41.742188 66.5625" stroke-linecap="round" />
</g>
</svg>